%TF.GenerationSoftware,KiCad,Pcbnew,9.0.6-9.0.6~ubuntu24.04.1*%
%TF.CreationDate,2025-12-19T06:18:36+07:00*%
%TF.ProjectId,lamp,6c616d70-2e6b-4696-9361-645f70636258,rev?*%
%TF.SameCoordinates,Original*%
%TF.FileFunction,Drillmap*%
%TF.FilePolarity,Positive*%
%FSLAX45Y45*%
G04 Gerber Fmt 4.5, Leading zero omitted, Abs format (unit mm)*
G04 Created by KiCad (PCBNEW 9.0.6-9.0.6~ubuntu24.04.1) date 2025-12-19 06:18:36*
%MOMM*%
%LPD*%
G01*
G04 APERTURE LIST*
%ADD10C,0.050000*%
%ADD11C,0.200000*%
G04 APERTURE END LIST*
D10*
X14100000Y-10700000D02*
G75*
G02*
X11248282Y-10700000I-1425859J0D01*
G01*
X11248282Y-10700000D02*
G75*
G02*
X14100000Y-10700000I1425859J0D01*
G01*
D11*
X11506559Y-12439843D02*
X11506559Y-12239843D01*
X11506559Y-12239843D02*
X11554178Y-12239843D01*
X11554178Y-12239843D02*
X11582750Y-12249366D01*
X11582750Y-12249366D02*
X11601797Y-12268414D01*
X11601797Y-12268414D02*
X11611321Y-12287462D01*
X11611321Y-12287462D02*
X11620845Y-12325557D01*
X11620845Y-12325557D02*
X11620845Y-12354128D01*
X11620845Y-12354128D02*
X11611321Y-12392223D01*
X11611321Y-12392223D02*
X11601797Y-12411271D01*
X11601797Y-12411271D02*
X11582750Y-12430319D01*
X11582750Y-12430319D02*
X11554178Y-12439843D01*
X11554178Y-12439843D02*
X11506559Y-12439843D01*
X11706559Y-12439843D02*
X11706559Y-12306509D01*
X11706559Y-12344604D02*
X11716083Y-12325557D01*
X11716083Y-12325557D02*
X11725607Y-12316033D01*
X11725607Y-12316033D02*
X11744654Y-12306509D01*
X11744654Y-12306509D02*
X11763702Y-12306509D01*
X11830369Y-12439843D02*
X11830369Y-12306509D01*
X11830369Y-12239843D02*
X11820845Y-12249366D01*
X11820845Y-12249366D02*
X11830369Y-12258890D01*
X11830369Y-12258890D02*
X11839892Y-12249366D01*
X11839892Y-12249366D02*
X11830369Y-12239843D01*
X11830369Y-12239843D02*
X11830369Y-12258890D01*
X11954178Y-12439843D02*
X11935131Y-12430319D01*
X11935131Y-12430319D02*
X11925607Y-12411271D01*
X11925607Y-12411271D02*
X11925607Y-12239843D01*
X12058940Y-12439843D02*
X12039892Y-12430319D01*
X12039892Y-12430319D02*
X12030369Y-12411271D01*
X12030369Y-12411271D02*
X12030369Y-12239843D01*
X12287512Y-12439843D02*
X12287512Y-12239843D01*
X12287512Y-12239843D02*
X12354178Y-12382700D01*
X12354178Y-12382700D02*
X12420845Y-12239843D01*
X12420845Y-12239843D02*
X12420845Y-12439843D01*
X12601797Y-12439843D02*
X12601797Y-12335081D01*
X12601797Y-12335081D02*
X12592273Y-12316033D01*
X12592273Y-12316033D02*
X12573226Y-12306509D01*
X12573226Y-12306509D02*
X12535131Y-12306509D01*
X12535131Y-12306509D02*
X12516083Y-12316033D01*
X12601797Y-12430319D02*
X12582750Y-12439843D01*
X12582750Y-12439843D02*
X12535131Y-12439843D01*
X12535131Y-12439843D02*
X12516083Y-12430319D01*
X12516083Y-12430319D02*
X12506559Y-12411271D01*
X12506559Y-12411271D02*
X12506559Y-12392223D01*
X12506559Y-12392223D02*
X12516083Y-12373176D01*
X12516083Y-12373176D02*
X12535131Y-12363652D01*
X12535131Y-12363652D02*
X12582750Y-12363652D01*
X12582750Y-12363652D02*
X12601797Y-12354128D01*
X12697035Y-12306509D02*
X12697035Y-12506509D01*
X12697035Y-12316033D02*
X12716083Y-12306509D01*
X12716083Y-12306509D02*
X12754178Y-12306509D01*
X12754178Y-12306509D02*
X12773226Y-12316033D01*
X12773226Y-12316033D02*
X12782750Y-12325557D01*
X12782750Y-12325557D02*
X12792273Y-12344604D01*
X12792273Y-12344604D02*
X12792273Y-12401747D01*
X12792273Y-12401747D02*
X12782750Y-12420795D01*
X12782750Y-12420795D02*
X12773226Y-12430319D01*
X12773226Y-12430319D02*
X12754178Y-12439843D01*
X12754178Y-12439843D02*
X12716083Y-12439843D01*
X12716083Y-12439843D02*
X12697035Y-12430319D01*
X12877988Y-12420795D02*
X12887512Y-12430319D01*
X12887512Y-12430319D02*
X12877988Y-12439843D01*
X12877988Y-12439843D02*
X12868464Y-12430319D01*
X12868464Y-12430319D02*
X12877988Y-12420795D01*
X12877988Y-12420795D02*
X12877988Y-12439843D01*
X12877988Y-12316033D02*
X12887512Y-12325557D01*
X12887512Y-12325557D02*
X12877988Y-12335081D01*
X12877988Y-12335081D02*
X12868464Y-12325557D01*
X12868464Y-12325557D02*
X12877988Y-12316033D01*
X12877988Y-12316033D02*
X12877988Y-12335081D01*
M02*
