%TF.GenerationSoftware,KiCad,Pcbnew,9.0.6-9.0.6~ubuntu24.04.1*%
%TF.CreationDate,2025-12-18T10:31:20+07:00*%
%TF.ProjectId,lamp,6c616d70-2e6b-4696-9361-645f70636258,rev?*%
%TF.SameCoordinates,Original*%
%TF.FileFunction,Legend,Top*%
%TF.FilePolarity,Positive*%
%FSLAX46Y46*%
G04 Gerber Fmt 4.6, Leading zero omitted, Abs format (unit mm)*
G04 Created by KiCad (PCBNEW 9.0.6-9.0.6~ubuntu24.04.1) date 2025-12-18 10:31:20*
%MOMM*%
%LPD*%
G01*
G04 APERTURE LIST*
%ADD10C,0.150000*%
%ADD11C,0.250000*%
%ADD12C,0.100000*%
%ADD13C,0.120000*%
G04 APERTURE END LIST*
D10*
X124619048Y-106573866D02*
X125380953Y-106573866D01*
X125000000Y-106954819D02*
X125000000Y-106192914D01*
D11*
G36*
X120751912Y-95181648D02*
G01*
X121766924Y-95181648D01*
X121766924Y-94922702D01*
X120751912Y-94922702D01*
X120751912Y-95181648D01*
G37*
G36*
X120758946Y-96442087D02*
G01*
X120758946Y-95174614D01*
X120500000Y-95174614D01*
X120500000Y-96442087D01*
X120758946Y-96442087D01*
G37*
G36*
X121766924Y-96442087D02*
G01*
X121766924Y-95427845D01*
X121255956Y-95427845D01*
X121255956Y-95686901D01*
X121507978Y-95686901D01*
X121507978Y-96442087D01*
X121766924Y-96442087D01*
G37*
G36*
X120751912Y-96694000D02*
G01*
X121515012Y-96694000D01*
X121515012Y-96435053D01*
X120751912Y-96435053D01*
X120751912Y-96694000D01*
G37*
G36*
X122269539Y-96442087D02*
G01*
X122269539Y-94923031D01*
X122010593Y-94923031D01*
X122010593Y-96442087D01*
X122269539Y-96442087D01*
G37*
G36*
X122262505Y-96435053D02*
G01*
X122262505Y-96694000D01*
X122521561Y-96694000D01*
X122521561Y-96435053D01*
X122262505Y-96435053D01*
G37*
G36*
X123016922Y-95686901D02*
G01*
X123780022Y-95686901D01*
X123780022Y-95427845D01*
X123016922Y-95427845D01*
X123016922Y-95686901D01*
G37*
G36*
X123023956Y-96440769D02*
G01*
X123023956Y-95677778D01*
X122765010Y-95677778D01*
X122765010Y-96440769D01*
X123023956Y-96440769D01*
G37*
G36*
X123772988Y-95677778D02*
G01*
X123772988Y-96440769D01*
X124031934Y-96440769D01*
X124031934Y-95677778D01*
X123772988Y-95677778D01*
G37*
G36*
X123780022Y-96435053D02*
G01*
X123016922Y-96435053D01*
X123016922Y-96694000D01*
X123780022Y-96694000D01*
X123780022Y-96435053D01*
G37*
G36*
X124534549Y-96442087D02*
G01*
X124534549Y-95427075D01*
X124275603Y-95427075D01*
X124275603Y-96442087D01*
X124534549Y-96442087D01*
G37*
G36*
X125283581Y-95427075D02*
G01*
X125283581Y-96435053D01*
X125038593Y-96435053D01*
X125038593Y-95931009D01*
X124779537Y-95931009D01*
X124779537Y-96435053D01*
X124527515Y-96435053D01*
X124527515Y-96694000D01*
X125542527Y-96694000D01*
X125542527Y-95427075D01*
X125283581Y-95427075D01*
G37*
G36*
X126801209Y-96435053D02*
G01*
X126045143Y-96435053D01*
X126045143Y-95181648D01*
X126801209Y-95181648D01*
X126801209Y-94922702D01*
X125786196Y-94922702D01*
X125786196Y-96694000D01*
X126801209Y-96694000D01*
X126801209Y-96435053D01*
G37*
G36*
X126794174Y-95174614D02*
G01*
X126794174Y-96442087D01*
X127053121Y-96442087D01*
X127053121Y-95174614D01*
X126794174Y-95174614D01*
G37*
G36*
X127555736Y-96442087D02*
G01*
X127555736Y-95427075D01*
X127296789Y-95427075D01*
X127296789Y-96442087D01*
X127555736Y-96442087D01*
G37*
G36*
X128304767Y-95427075D02*
G01*
X128304767Y-96435053D01*
X127548702Y-96435053D01*
X127548702Y-96694000D01*
X128563714Y-96694000D01*
X128563714Y-95427075D01*
X128304767Y-95427075D01*
G37*
G36*
X129822395Y-95427845D02*
G01*
X129059295Y-95427845D01*
X129059295Y-95686901D01*
X129822395Y-95686901D01*
X129822395Y-95427845D01*
G37*
G36*
X128807383Y-95677778D02*
G01*
X128807383Y-96440769D01*
X129066329Y-96440769D01*
X129066329Y-95677778D01*
X128807383Y-95677778D01*
G37*
G36*
X130074307Y-95940132D02*
G01*
X130074307Y-95681076D01*
X129815361Y-95681076D01*
X129815361Y-95940132D01*
X130074307Y-95940132D01*
G37*
G36*
X130074307Y-96181822D02*
G01*
X129815361Y-96181822D01*
X129815361Y-96440769D01*
X130074307Y-96440769D01*
X130074307Y-96181822D01*
G37*
G36*
X129059295Y-96694000D02*
G01*
X129822395Y-96694000D01*
X129822395Y-96435053D01*
X129059295Y-96435053D01*
X129059295Y-96694000D01*
G37*
G36*
X130576922Y-95928591D02*
G01*
X130576922Y-94923911D01*
X130317976Y-94923911D01*
X130317976Y-96694000D01*
X130576922Y-96694000D01*
X130576922Y-96187538D01*
X130828944Y-96187538D01*
X130828944Y-95928591D01*
X130576922Y-95928591D01*
G37*
G36*
X131332988Y-95427845D02*
G01*
X131073932Y-95427845D01*
X131073932Y-95686901D01*
X131332988Y-95686901D01*
X131332988Y-95427845D01*
G37*
G36*
X131080966Y-95681076D02*
G01*
X130821910Y-95681076D01*
X130821910Y-95940132D01*
X131080966Y-95940132D01*
X131080966Y-95681076D01*
G37*
G36*
X131080966Y-96440769D02*
G01*
X131080966Y-96181822D01*
X130821910Y-96181822D01*
X130821910Y-96440769D01*
X131080966Y-96440769D01*
G37*
G36*
X131332988Y-96694000D02*
G01*
X131332988Y-96435053D01*
X131073932Y-96435053D01*
X131073932Y-96694000D01*
X131332988Y-96694000D01*
G37*
G36*
X131836043Y-96190945D02*
G01*
X131836043Y-95427845D01*
X131577096Y-95427845D01*
X131577096Y-96190945D01*
X131836043Y-96190945D01*
G37*
G36*
X132585075Y-95427845D02*
G01*
X132585075Y-96181822D01*
X131829009Y-96181822D01*
X131829009Y-96440769D01*
X132585075Y-96440769D01*
X132585075Y-96694000D01*
X132844021Y-96694000D01*
X132844021Y-95425756D01*
X132585075Y-95427845D01*
G37*
G36*
X132592109Y-96686965D02*
G01*
X131577096Y-96686965D01*
X131577096Y-96946021D01*
X132592109Y-96946021D01*
X132592109Y-96686965D01*
G37*
D10*
X121931009Y-106333333D02*
X121978628Y-106190476D01*
X121978628Y-106190476D02*
X122026247Y-106142857D01*
X122026247Y-106142857D02*
X122121485Y-106095238D01*
X122121485Y-106095238D02*
X122264342Y-106095238D01*
X122264342Y-106095238D02*
X122359580Y-106142857D01*
X122359580Y-106142857D02*
X122407200Y-106190476D01*
X122407200Y-106190476D02*
X122454819Y-106285714D01*
X122454819Y-106285714D02*
X122454819Y-106666666D01*
X122454819Y-106666666D02*
X121454819Y-106666666D01*
X121454819Y-106666666D02*
X121454819Y-106333333D01*
X121454819Y-106333333D02*
X121502438Y-106238095D01*
X121502438Y-106238095D02*
X121550057Y-106190476D01*
X121550057Y-106190476D02*
X121645295Y-106142857D01*
X121645295Y-106142857D02*
X121740533Y-106142857D01*
X121740533Y-106142857D02*
X121835771Y-106190476D01*
X121835771Y-106190476D02*
X121883390Y-106238095D01*
X121883390Y-106238095D02*
X121931009Y-106333333D01*
X121931009Y-106333333D02*
X121931009Y-106666666D01*
X121454819Y-105809523D02*
X121454819Y-105238095D01*
X122454819Y-105523809D02*
X121454819Y-105523809D01*
X122454819Y-104904761D02*
X121454819Y-104904761D01*
X121454819Y-104904761D02*
X122454819Y-104333333D01*
X122454819Y-104333333D02*
X121454819Y-104333333D01*
X117595237Y-115931009D02*
X117738094Y-115978628D01*
X117738094Y-115978628D02*
X117785713Y-116026247D01*
X117785713Y-116026247D02*
X117833332Y-116121485D01*
X117833332Y-116121485D02*
X117833332Y-116264342D01*
X117833332Y-116264342D02*
X117785713Y-116359580D01*
X117785713Y-116359580D02*
X117738094Y-116407200D01*
X117738094Y-116407200D02*
X117642856Y-116454819D01*
X117642856Y-116454819D02*
X117261904Y-116454819D01*
X117261904Y-116454819D02*
X117261904Y-115454819D01*
X117261904Y-115454819D02*
X117595237Y-115454819D01*
X117595237Y-115454819D02*
X117690475Y-115502438D01*
X117690475Y-115502438D02*
X117738094Y-115550057D01*
X117738094Y-115550057D02*
X117785713Y-115645295D01*
X117785713Y-115645295D02*
X117785713Y-115740533D01*
X117785713Y-115740533D02*
X117738094Y-115835771D01*
X117738094Y-115835771D02*
X117690475Y-115883390D01*
X117690475Y-115883390D02*
X117595237Y-115931009D01*
X117595237Y-115931009D02*
X117261904Y-115931009D01*
X118214285Y-116169104D02*
X118690475Y-116169104D01*
X118119047Y-116454819D02*
X118452380Y-115454819D01*
X118452380Y-115454819D02*
X118785713Y-116454819D01*
X118976190Y-115454819D02*
X119547618Y-115454819D01*
X119261904Y-116454819D02*
X119261904Y-115454819D01*
X119738095Y-115454819D02*
X120309523Y-115454819D01*
X120023809Y-116454819D02*
X120023809Y-115454819D01*
X121833333Y-115454819D02*
X121642857Y-115454819D01*
X121642857Y-115454819D02*
X121547619Y-115502438D01*
X121547619Y-115502438D02*
X121500000Y-115550057D01*
X121500000Y-115550057D02*
X121404762Y-115692914D01*
X121404762Y-115692914D02*
X121357143Y-115883390D01*
X121357143Y-115883390D02*
X121357143Y-116264342D01*
X121357143Y-116264342D02*
X121404762Y-116359580D01*
X121404762Y-116359580D02*
X121452381Y-116407200D01*
X121452381Y-116407200D02*
X121547619Y-116454819D01*
X121547619Y-116454819D02*
X121738095Y-116454819D01*
X121738095Y-116454819D02*
X121833333Y-116407200D01*
X121833333Y-116407200D02*
X121880952Y-116359580D01*
X121880952Y-116359580D02*
X121928571Y-116264342D01*
X121928571Y-116264342D02*
X121928571Y-116026247D01*
X121928571Y-116026247D02*
X121880952Y-115931009D01*
X121880952Y-115931009D02*
X121833333Y-115883390D01*
X121833333Y-115883390D02*
X121738095Y-115835771D01*
X121738095Y-115835771D02*
X121547619Y-115835771D01*
X121547619Y-115835771D02*
X121452381Y-115883390D01*
X121452381Y-115883390D02*
X121404762Y-115931009D01*
X121404762Y-115931009D02*
X121357143Y-116026247D01*
X122214286Y-115454819D02*
X122547619Y-116454819D01*
X122547619Y-116454819D02*
X122880952Y-115454819D01*
D11*
G36*
X129563895Y-97626580D02*
G01*
X129000000Y-97626580D01*
X129000000Y-98330488D01*
X129143859Y-98330488D01*
X129143859Y-97770500D01*
X129563895Y-97770500D01*
X129563895Y-97626580D01*
G37*
G36*
X129559987Y-97766592D02*
G01*
X129559987Y-98330488D01*
X129703846Y-98330488D01*
X129703846Y-97766592D01*
X129559987Y-97766592D01*
G37*
G36*
X130403114Y-97489804D02*
G01*
X130403114Y-97345945D01*
X130119181Y-97345945D01*
X130119181Y-97489804D01*
X130403114Y-97489804D01*
G37*
G36*
X129979169Y-97485896D02*
G01*
X129979169Y-97626580D01*
X129839218Y-97626580D01*
X129839218Y-97770500D01*
X129979169Y-97770500D01*
X129979169Y-98330488D01*
X130123089Y-98330488D01*
X130123089Y-97770500D01*
X130403114Y-97770500D01*
X130403114Y-97626580D01*
X130123089Y-97626580D01*
X130123089Y-97485896D01*
X129979169Y-97485896D01*
G37*
G36*
X131102625Y-97626580D02*
G01*
X130538729Y-97626580D01*
X130538729Y-98330488D01*
X130682588Y-98330488D01*
X130682588Y-97770500D01*
X131102625Y-97770500D01*
X131102625Y-97626580D01*
G37*
G36*
X131098717Y-97766592D02*
G01*
X131098717Y-98330488D01*
X131242576Y-98330488D01*
X131242576Y-97766592D01*
X131098717Y-97766592D01*
G37*
G36*
X131941844Y-97626580D02*
G01*
X131517899Y-97626580D01*
X131517899Y-97770500D01*
X131941844Y-97770500D01*
X131941844Y-97626580D01*
G37*
G36*
X131937936Y-97766592D02*
G01*
X131937936Y-97904773D01*
X131517899Y-97904773D01*
X131517899Y-98048632D01*
X131937936Y-98048632D01*
X131937936Y-98186140D01*
X131517899Y-98186140D01*
X131517899Y-98330000D01*
X132081795Y-98330000D01*
X132081795Y-97766592D01*
X131937936Y-97766592D01*
G37*
G36*
X131377948Y-98045457D02*
G01*
X131377948Y-98189316D01*
X131521807Y-98189316D01*
X131521807Y-98045457D01*
X131377948Y-98045457D01*
G37*
G36*
X132781062Y-97626580D02*
G01*
X132357117Y-97626580D01*
X132357117Y-97770500D01*
X132781062Y-97770500D01*
X132781062Y-97626580D01*
G37*
G36*
X132777154Y-97766592D02*
G01*
X132777154Y-97904773D01*
X132357117Y-97904773D01*
X132357117Y-98048632D01*
X132777154Y-98048632D01*
X132777154Y-98186140D01*
X132357117Y-98186140D01*
X132357117Y-98330000D01*
X132921013Y-98330000D01*
X132921013Y-97766592D01*
X132777154Y-97766592D01*
G37*
G36*
X132217166Y-98045457D02*
G01*
X132217166Y-98189316D01*
X132361025Y-98189316D01*
X132361025Y-98045457D01*
X132217166Y-98045457D01*
G37*
D10*
X118119048Y-114073866D02*
X118880953Y-114073866D01*
X118500000Y-114454819D02*
X118500000Y-113692914D01*
X135119048Y-106573866D02*
X135880953Y-106573866D01*
X135500000Y-106954819D02*
X135500000Y-106192914D01*
X124619048Y-115073866D02*
X125380953Y-115073866D01*
X120619048Y-114073866D02*
X121380953Y-114073866D01*
X132119048Y-115073866D02*
X132880953Y-115073866D01*
X125833333Y-98954819D02*
X125500000Y-98478628D01*
X125261905Y-98954819D02*
X125261905Y-97954819D01*
X125261905Y-97954819D02*
X125642857Y-97954819D01*
X125642857Y-97954819D02*
X125738095Y-98002438D01*
X125738095Y-98002438D02*
X125785714Y-98050057D01*
X125785714Y-98050057D02*
X125833333Y-98145295D01*
X125833333Y-98145295D02*
X125833333Y-98288152D01*
X125833333Y-98288152D02*
X125785714Y-98383390D01*
X125785714Y-98383390D02*
X125738095Y-98431009D01*
X125738095Y-98431009D02*
X125642857Y-98478628D01*
X125642857Y-98478628D02*
X125261905Y-98478628D01*
X126785714Y-98954819D02*
X126214286Y-98954819D01*
X126500000Y-98954819D02*
X126500000Y-97954819D01*
X126500000Y-97954819D02*
X126404762Y-98097676D01*
X126404762Y-98097676D02*
X126309524Y-98192914D01*
X126309524Y-98192914D02*
X126214286Y-98240533D01*
D12*
X127261905Y-106957419D02*
X127261905Y-105957419D01*
X127261905Y-105957419D02*
X127500000Y-105957419D01*
X127500000Y-105957419D02*
X127642857Y-106005038D01*
X127642857Y-106005038D02*
X127738095Y-106100276D01*
X127738095Y-106100276D02*
X127785714Y-106195514D01*
X127785714Y-106195514D02*
X127833333Y-106385990D01*
X127833333Y-106385990D02*
X127833333Y-106528847D01*
X127833333Y-106528847D02*
X127785714Y-106719323D01*
X127785714Y-106719323D02*
X127738095Y-106814561D01*
X127738095Y-106814561D02*
X127642857Y-106909800D01*
X127642857Y-106909800D02*
X127500000Y-106957419D01*
X127500000Y-106957419D02*
X127261905Y-106957419D01*
X128214286Y-106052657D02*
X128261905Y-106005038D01*
X128261905Y-106005038D02*
X128357143Y-105957419D01*
X128357143Y-105957419D02*
X128595238Y-105957419D01*
X128595238Y-105957419D02*
X128690476Y-106005038D01*
X128690476Y-106005038D02*
X128738095Y-106052657D01*
X128738095Y-106052657D02*
X128785714Y-106147895D01*
X128785714Y-106147895D02*
X128785714Y-106243133D01*
X128785714Y-106243133D02*
X128738095Y-106385990D01*
X128738095Y-106385990D02*
X128166667Y-106957419D01*
X128166667Y-106957419D02*
X128785714Y-106957419D01*
D10*
X129857142Y-106954819D02*
X129380952Y-106954819D01*
X129380952Y-106954819D02*
X129380952Y-105954819D01*
X130190476Y-106431009D02*
X130523809Y-106431009D01*
X130666666Y-106954819D02*
X130190476Y-106954819D01*
X130190476Y-106954819D02*
X130190476Y-105954819D01*
X130190476Y-105954819D02*
X130666666Y-105954819D01*
X131095238Y-106954819D02*
X131095238Y-105954819D01*
X131095238Y-105954819D02*
X131333333Y-105954819D01*
X131333333Y-105954819D02*
X131476190Y-106002438D01*
X131476190Y-106002438D02*
X131571428Y-106097676D01*
X131571428Y-106097676D02*
X131619047Y-106192914D01*
X131619047Y-106192914D02*
X131666666Y-106383390D01*
X131666666Y-106383390D02*
X131666666Y-106526247D01*
X131666666Y-106526247D02*
X131619047Y-106716723D01*
X131619047Y-106716723D02*
X131571428Y-106811961D01*
X131571428Y-106811961D02*
X131476190Y-106907200D01*
X131476190Y-106907200D02*
X131333333Y-106954819D01*
X131333333Y-106954819D02*
X131095238Y-106954819D01*
X115454819Y-111558333D02*
X116169104Y-111558333D01*
X116169104Y-111558333D02*
X116311961Y-111605952D01*
X116311961Y-111605952D02*
X116407200Y-111701190D01*
X116407200Y-111701190D02*
X116454819Y-111844047D01*
X116454819Y-111844047D02*
X116454819Y-111939285D01*
X116454819Y-110558333D02*
X116454819Y-111129761D01*
X116454819Y-110844047D02*
X115454819Y-110844047D01*
X115454819Y-110844047D02*
X115597676Y-110939285D01*
X115597676Y-110939285D02*
X115692914Y-111034523D01*
X115692914Y-111034523D02*
X115740533Y-111129761D01*
D12*
X132261905Y-106957419D02*
X132261905Y-105957419D01*
X132261905Y-105957419D02*
X132500000Y-105957419D01*
X132500000Y-105957419D02*
X132642857Y-106005038D01*
X132642857Y-106005038D02*
X132738095Y-106100276D01*
X132738095Y-106100276D02*
X132785714Y-106195514D01*
X132785714Y-106195514D02*
X132833333Y-106385990D01*
X132833333Y-106385990D02*
X132833333Y-106528847D01*
X132833333Y-106528847D02*
X132785714Y-106719323D01*
X132785714Y-106719323D02*
X132738095Y-106814561D01*
X132738095Y-106814561D02*
X132642857Y-106909800D01*
X132642857Y-106909800D02*
X132500000Y-106957419D01*
X132500000Y-106957419D02*
X132261905Y-106957419D01*
X133785714Y-106957419D02*
X133214286Y-106957419D01*
X133500000Y-106957419D02*
X133500000Y-105957419D01*
X133500000Y-105957419D02*
X133404762Y-106100276D01*
X133404762Y-106100276D02*
X133309524Y-106195514D01*
X133309524Y-106195514D02*
X133214286Y-106243133D01*
D10*
X120666666Y-97954819D02*
X120666666Y-98669104D01*
X120666666Y-98669104D02*
X120619047Y-98811961D01*
X120619047Y-98811961D02*
X120523809Y-98907200D01*
X120523809Y-98907200D02*
X120380952Y-98954819D01*
X120380952Y-98954819D02*
X120285714Y-98954819D01*
X121095238Y-98050057D02*
X121142857Y-98002438D01*
X121142857Y-98002438D02*
X121238095Y-97954819D01*
X121238095Y-97954819D02*
X121476190Y-97954819D01*
X121476190Y-97954819D02*
X121571428Y-98002438D01*
X121571428Y-98002438D02*
X121619047Y-98050057D01*
X121619047Y-98050057D02*
X121666666Y-98145295D01*
X121666666Y-98145295D02*
X121666666Y-98240533D01*
X121666666Y-98240533D02*
X121619047Y-98383390D01*
X121619047Y-98383390D02*
X121047619Y-98954819D01*
X121047619Y-98954819D02*
X121666666Y-98954819D01*
D13*
%TO.C,R1*%
X122840000Y-101500000D02*
X123530000Y-101500000D01*
X133460000Y-101500000D02*
X132770000Y-101500000D01*
X123530000Y-99780000D02*
X132770000Y-99780000D01*
X132770000Y-103220000D01*
X123530000Y-103220000D01*
X123530000Y-99780000D01*
%TO.C,D2*%
X128545000Y-108372500D02*
X125455000Y-108372500D01*
X127000000Y-113922500D02*
G75*
G02*
X125455170Y-108372500I0J2990000D01*
G01*
X128544830Y-108372500D02*
G75*
G02*
X127000000Y-113922500I-1544830J-2560000D01*
G01*
X129500000Y-110932500D02*
G75*
G02*
X124500000Y-110932500I-2500000J0D01*
G01*
X124500000Y-110932500D02*
G75*
G02*
X129500000Y-110932500I2500000J0D01*
G01*
%TO.C,J1*%
X117120000Y-112605000D02*
X117120000Y-111225000D01*
X118500000Y-112605000D02*
X117120000Y-112605000D01*
X119770000Y-109845000D02*
X122420000Y-109845000D01*
X119770000Y-112605000D02*
X119770000Y-109845000D01*
X119770000Y-112605000D02*
X122420000Y-112605000D01*
X122420000Y-112605000D02*
X122420000Y-109845000D01*
%TO.C,D1*%
X136045000Y-108347500D02*
X132955000Y-108347500D01*
X134500000Y-113897500D02*
G75*
G02*
X132955170Y-108347500I0J2990000D01*
G01*
X136044830Y-108347500D02*
G75*
G02*
X134500000Y-113897500I-1544830J-2560000D01*
G01*
X137000000Y-110907500D02*
G75*
G02*
X132000000Y-110907500I-2500000J0D01*
G01*
X132000000Y-110907500D02*
G75*
G02*
X137000000Y-110907500I2500000J0D01*
G01*
%TO.C,J2*%
X117120000Y-100080000D02*
X118500000Y-100080000D01*
X117120000Y-101460000D02*
X117120000Y-100080000D01*
X117120000Y-102730000D02*
X117120000Y-107920000D01*
X117120000Y-102730000D02*
X119880000Y-102730000D01*
X117120000Y-107920000D02*
X119880000Y-107920000D01*
X119880000Y-102730000D02*
X119880000Y-107920000D01*
%TD*%
M02*
